<?xml version="1.0" standalone="no"?>
<!DOCTYPE svg PUBLIC "-//W3C//DTD SVG 20010904//EN"
 "http://www.w3.org/TR/2001/REC-SVG-20010904/DTD/svg10.dtd">
<svg version="1.0" xmlns="http://www.w3.org/2000/svg"
 width="500.000000pt" height="500.000000pt" viewBox="0 0 500.000000 500.000000"
 preserveAspectRatio="xMidYMid meet">

<g transform="translate(0.000000,500.000000) scale(0.100000,-0.100000)"
fill="#000000" stroke="none">
<path d="M2400 4418 c-304 -31 -616 -198 -876 -471 -62 -64 -73 -80 -65 -96
12 -21 205 -212 271 -267 62 -51 175 -124 239 -154 l53 -25 -28 -12 c-25 -11
-15 -12 84 -13 l112 0 0 -150 c0 -82 2 -150 5 -150 3 0 25 15 50 34 58 45 144
76 226 83 215 18 419 -141 460 -359 l10 -58 117 0 117 0 -3 -300 c-2 -165 0
-300 3 -300 4 0 28 18 54 40 l48 41 6 102 c9 149 51 260 128 336 105 103 241
125 387 65 8 -4 12 8 12 42 0 46 -2 49 -87 133 -181 178 -466 368 -682 455
l-45 17 50 28 c142 79 268 176 402 310 50 51 92 100 92 108 0 40 -198 228
-348 331 -254 174 -537 256 -792 230z m258 -222 c150 -69 243 -243 213 -398
-17 -87 -40 -134 -95 -195 -174 -192 -493 -152 -611 77 -107 208 -11 444 220
536 17 7 68 12 120 11 75 -2 100 -7 153 -31z m476 -1087 c90 -71 66 -205 -43
-237 -68 -21 -139 21 -161 95 -11 37 -10 46 8 85 12 23 34 51 49 60 40 25 114
23 147 -3z"/>
<path d="M2410 4029 c-141 -86 -128 -291 22 -354 80 -33 170 -3 223 73 25 37
30 53 30 105 0 81 -25 131 -84 168 -58 37 -138 40 -191 8z"/>
<path d="M1765 3301 c-88 -48 -284 -189 -285 -205 0 -8 112 -205 240 -421 30
-49 73 -126 97 -170 l43 -80 -3 420 c-2 318 -6 428 -16 453 -7 17 -16 32 -19
31 -4 0 -30 -13 -57 -28z"/>
<path d="M2399 2962 c-130 -68 -157 -247 -53 -354 114 -118 306 -74 359 81 30
89 8 177 -59 239 -74 68 -160 80 -247 34z"/>
<path d="M1286 2744 c-3 -9 -6 -60 -6 -114 l0 -99 58 -46 c31 -25 75 -60 97
-78 22 -17 61 -49 88 -70 l48 -38 -24 38 c-40 62 -193 324 -217 371 -26 50
-36 58 -44 36z"/>
<path d="M2897 2578 c-10 -26 -39 -70 -64 -98 -100 -111 -203 -154 -353 -148
-101 4 -175 29 -246 83 -18 14 -35 25 -38 25 -3 0 -6 -124 -6 -275 l0 -275
-190 0 -189 0 -35 63 c-55 96 -48 91 -87 69 -141 -80 -263 -164 -358 -245 -68
-58 -248 -242 -279 -286 -29 -40 -30 -45 -18 -70 17 -31 278 -288 356 -350
259 -205 577 -348 878 -397 113 -18 326 -20 441 -4 426 58 865 308 1195 680
83 93 82 90 37 147 -86 108 -369 367 -466 427 -16 10 -42 29 -56 43 -14 13
-39 32 -56 41 -16 9 -61 36 -101 60 -39 23 -76 42 -82 42 -9 0 -11 -30 -8
-105 l3 -105 -127 0 -128 0 -2 363 -3 362 -18 -47z m-304 -369 c46 -12 100
-58 117 -99 18 -42 8 -121 -20 -159 -12 -18 -21 -33 -19 -34 2 -1 34 -17 70
-35 113 -56 201 -158 241 -281 27 -81 26 -235 -3 -321 -67 -206 -255 -340
-474 -340 -183 0 -332 78 -430 226 -65 97 -78 144 -78 274 -1 127 17 191 76
280 65 98 205 197 303 216 32 6 45 26 25 38 -15 9 -21 80 -10 119 14 51 52 93
102 110 52 19 54 19 100 6z"/>
<path d="M2454 1710 c-22 -3 -61 -18 -87 -33 -82 -48 -127 -128 -127 -225 0
-157 109 -272 257 -272 73 0 120 18 174 67 54 48 81 104 86 178 14 172 -134
311 -303 285z"/>
<path d="M3633 2565 c-23 -14 -51 -40 -62 -58 -20 -32 -40 -117 -27 -117 12 0
151 108 185 143 18 19 30 40 27 46 -13 20 -79 12 -123 -14z"/>
</g>
</svg>
